<mxfile host="65bd71144e">
    <diagram id="xo5YfWzw7vrKMdxwPkpB" name="Page-1">
        <mxGraphModel dx="1121" dy="570" grid="1" gridSize="10" guides="1" tooltips="1" connect="1" arrows="1" fold="1" page="1" pageScale="1" pageWidth="827" pageHeight="1169" math="0" shadow="0">
            <root>
                <mxCell id="0"/>
                <mxCell id="1" parent="0"/>
                <mxCell id="23" value="" style="rounded=1;whiteSpace=wrap;html=1;fillColor=#ffe6cc;strokeColor=#d79b00;strokeWidth=1;" vertex="1" parent="1">
                    <mxGeometry x="480" y="290" width="310" height="260" as="geometry"/>
                </mxCell>
                <mxCell id="22" value="" style="rounded=1;whiteSpace=wrap;html=1;fillColor=#dae8fc;strokeColor=#6c8ebf;opacity=60;strokeWidth=1;" vertex="1" parent="1">
                    <mxGeometry x="260" y="290" width="300" height="260" as="geometry"/>
                </mxCell>
                <mxCell id="12" value="匿名(独占)内存&lt;div&gt;anno_rss&lt;/div&gt;" style="text;html=1;align=center;verticalAlign=middle;whiteSpace=wrap;rounded=0;" parent="1" vertex="1">
                    <mxGeometry x="310" y="430" width="90" height="30" as="geometry"/>
                </mxCell>
                <mxCell id="17" value="匿名(独占)内存&lt;div&gt;anno_rss&lt;/div&gt;" style="text;html=1;align=center;verticalAlign=middle;whiteSpace=wrap;rounded=0;strokeWidth=1;" parent="1" vertex="1">
                    <mxGeometry x="620" y="430" width="100" height="30" as="geometry"/>
                </mxCell>
                <mxCell id="18" value="进程1" style="text;html=1;align=center;verticalAlign=middle;whiteSpace=wrap;rounded=0;" parent="1" vertex="1">
                    <mxGeometry x="360" y="300" width="60" height="30" as="geometry"/>
                </mxCell>
                <mxCell id="19" value="进程2" style="text;html=1;align=center;verticalAlign=middle;whiteSpace=wrap;rounded=0;" parent="1" vertex="1">
                    <mxGeometry x="610" y="290" width="60" height="30" as="geometry"/>
                </mxCell>
                <mxCell id="20" value="共享内存&lt;div&gt;shmem_rss&lt;/div&gt;" style="text;html=1;align=center;verticalAlign=middle;whiteSpace=wrap;rounded=0;" parent="1" vertex="1">
                    <mxGeometry x="490" y="400" width="60" height="30" as="geometry"/>
                </mxCell>
                <mxCell id="21" value="PageCache(file_rss)" style="rounded=1;whiteSpace=wrap;html=1;opacity=80;fillColor=#d5e8d4;strokeColor=#82b366;" parent="1" vertex="1">
                    <mxGeometry x="260" y="550" width="530" height="70" as="geometry"/>
                </mxCell>
            </root>
        </mxGraphModel>
    </diagram>
</mxfile>